<svg width="1224" height="711" viewBox="0 0 1224 711" fill="none" xmlns="http://www.w3.org/2000/svg">
<rect width="1224" height="711" fill="#F8F8F8"/>
<rect width="49.4172" height="49.4172" transform="matrix(0.707509 0.706704 -0.707509 0.706704 208.963 279)" fill="#FFC8B4"/>
<rect width="200" height="200" transform="matrix(0.707509 0.706704 -0.707509 0.706704 161.502 327)" fill="#BDE8F0"/>
<rect width="114.229" height="114.229" transform="matrix(0.694898 0.719108 -0.694898 0.719108 1044.22 313.909)" fill="#FFC8B4"/>
<rect width="148.252" height="148.252" transform="matrix(0.707509 0.706704 -0.707509 0.706704 113.889 122.583)" fill="#CFC7FF"/>
<rect width="84.9975" height="84.9975" transform="matrix(0.707509 0.706704 -0.707509 0.706704 113.637 584.864)" fill="#E4F2E0"/>
<rect width="84.9975" height="84.9975" transform="matrix(0.707509 0.706704 -0.707509 0.706704 234.284 100.851)" fill="#E4F2E0"/>
<rect width="114.229" height="114.229" transform="matrix(0.694898 0.719108 -0.694898 0.719108 1102.22 436.854)" fill="#E4F2E0"/>
<rect width="47.5956" height="47.5956" transform="matrix(0.694898 0.719108 -0.694898 0.719108 1151.33 216.135)" fill="#FFC8B4"/>
<rect width="85.6721" height="85.6721" transform="matrix(0.694898 0.719108 -0.694898 0.719108 978.533 138.689)" fill="#BDE8F0"/>
<rect width="85.6721" height="85.6721" transform="matrix(0.694898 0.719108 -0.694898 0.719108 1136.63 582.064)" fill="#BDE8F0"/>
<rect width="98.8343" height="98.8343" transform="matrix(0.707509 0.706704 -0.707509 0.706704 161.995 8)" fill="#FFED82"/>
<rect width="49.4172" height="49.4172" transform="matrix(0.707509 0.706704 -0.707509 0.706704 69.6747 312.236)" fill="#FFED82"/>
<rect width="47.5956" height="47.5956" transform="matrix(0.694898 0.719108 -0.694898 0.719108 1059.65 575.288)" fill="#FFED82"/>
<rect width="161.825" height="161.825" transform="matrix(0.694898 0.719108 -0.694898 0.719108 1102.55 8)" fill="#FFED82"/>
</svg>
